<?xml version="1.0" encoding="UTF-8" standalone="no"?>
<!-- Created with Inkscape (http://www.inkscape.org/) -->

<svg
   xmlns:dc="http://purl.org/dc/elements/1.1/"
   xmlns:cc="http://creativecommons.org/ns#"
   xmlns:rdf="http://www.w3.org/1999/02/22-rdf-syntax-ns#"
   xmlns:svg="http://www.w3.org/2000/svg"
   xmlns="http://www.w3.org/2000/svg"
   xmlns:sodipodi="http://sodipodi.sourceforge.net/DTD/sodipodi-0.dtd"
   xmlns:inkscape="http://www.inkscape.org/namespaces/inkscape"
   id="svg4220"
   version="1.1"
   inkscape:version="0.91 r13725"
   width="408.75"
   height="421.875"
   viewBox="0 0 408.75 421.875"
   sodipodi:docname="Dog8.svg">
  <metadata
     id="metadata4226">
    <rdf:RDF>
      <cc:Work
         rdf:about="">
        <dc:format>image/svg+xml</dc:format>
        <dc:type
           rdf:resource="http://purl.org/dc/dcmitype/StillImage" />
        <dc:title></dc:title>
      </cc:Work>
    </rdf:RDF>
  </metadata>
  <defs
     id="defs4224" />
  <sodipodi:namedview
     pagecolor="#ffffff"
     bordercolor="#666666"
     borderopacity="1"
     objecttolerance="10"
     gridtolerance="10"
     guidetolerance="10"
     inkscape:pageopacity="0"
     inkscape:pageshadow="2"
     inkscape:window-width="1600"
     inkscape:window-height="837"
     id="namedview4222"
     showgrid="false"
     inkscape:zoom="1.5881481"
     inkscape:cx="204.375"
     inkscape:cy="210.9375"
     inkscape:window-x="-8"
     inkscape:window-y="-8"
     inkscape:window-maximized="1"
     inkscape:current-layer="svg4220" />
  <path
     style="fill:#000000"
     d="m 186.09375,420 c -2.0625,-0.95477 -5.4375,-1.78569 -7.5,-1.84651 -2.0625,-0.0608 -5.85938,-0.83037 -8.4375,-1.71015 -4.36368,-1.48909 -4.79457,-1.9225 -6.23743,-6.27392 l -1.54993,-4.67434 -5.73007,-1.15974 c -7.02843,-1.42253 -8.70417,-2.28128 -10.3112,-5.28407 -1.10035,-2.056 -0.98641,-3.01493 0.92758,-7.80696 1.2001,-3.00468 2.51957,-5.86384 2.93215,-6.35369 0.41258,-0.48984 0.75015,-1.60486 0.75015,-2.47782 0,-0.87296 0.63281,-1.83002 1.40625,-2.12683 0.77344,-0.29679 1.40625,-1.13649 1.40625,-1.86601 0,-0.7295 0.94922,-1.55193 2.10938,-1.82759 1.16015,-0.27566 4.00781,-1.20606 6.32812,-2.06757 2.32031,-0.8615 6.71918,-1.97199 9.77525,-2.46777 3.05607,-0.49577 5.96072,-1.15122 6.45478,-1.45657 1.75831,-1.08669 -3.6503,-3.07685 -8.26128,-3.03983 -2.57812,0.0207 -9.41884,-0.25783 -15.20157,-0.61897 -9.45442,-0.59042 -10.80513,-0.90245 -13.40188,-3.09601 -2.87139,-2.42553 -2.88415,-2.47787 -2.24469,-9.20658 0.58426,-6.14786 0.98671,-7.156 4.39748,-11.01563 2.0649,-2.33664 4.22041,-4.25572 4.79001,-4.26464 0.56961,-0.008 2.02915,-1.06359 3.24343,-2.34375 1.69831,-1.79046 3.15856,-2.32755 6.32812,-2.32755 5.7799,0 5.12692,-1.29195 -1.32671,-2.62492 -7.32274,-1.51249 -16.11101,-1.48699 -16.12979,0.0468 -0.0199,1.62197 -1.82748,-1.24192 -1.8463,-2.92518 -0.0113,-1.01486 1.21581,-1.15975 5.84503,-0.69011 3.22265,0.32693 7.75781,0.77771 10.07812,1.00171 2.32031,0.22401 5.69531,0.66632 7.5,0.98292 3.02826,0.53123 3.13668,0.47283 1.40625,-0.75743 -3.73152,-2.65295 -23.29685,-5.52946 -37.17775,-5.46589 -10.81234,0.0495 -12.9785,-0.17024 -12.9785,-1.31671 0,-1.1323 1.86906,-1.36435 10.54688,-1.30947 11.07139,0.07 23.06495,1.10405 26.84426,2.31439 1.70344,0.54554 2.13207,0.40327 1.80253,-0.5983 -0.24403,-0.74167 -1.98937,-1.44419 -4.0069,-1.61284 -1.96601,-0.16434 -4.17837,-0.90262 -4.91638,-1.64062 -1.16409,-1.16411 -1.02252,-1.34183 1.06889,-1.34183 5.64719,0 0.34004,-4.40393 -8.37053,-6.94595 -3.09375,-0.90285 -6.67969,-2.00782 -7.96875,-2.45548 -1.28906,-0.44765 -7.04077,-1.32485 -12.78158,-1.94932 -8.30028,-0.90289 -12.49925,-0.8911 -20.504058,0.0576 -8.43572,0.99974 -10.197397,0.98597 -10.875946,-0.085 -2.45495,-3.87487 0.991696,-4.75392 18.254824,-4.65581 12.58191,0.0715 16.62324,0.45941 24.03176,2.30671 4.89844,1.22142 9.05396,2.09562 9.23451,1.94266 0.85903,-0.72779 -1.27062,-2.22676 -7.6265,-5.36802 -7.99634,-3.952 -17.50705,-6.4263 -22.23301,-5.7841 -1.80469,0.24523 -9.488016,0.84711 -17.07406,1.33753 -9.687225,0.62624 -16.105545,1.56984 -21.5625,3.17005 -13.756472,4.03397 -22.110787,5.68748 -23.433769,4.63809 -0.666007,-0.52828 -4.705994,-2.135 -8.977749,-3.57049 -4.271756,-1.43548 -8.017211,-3.01509 -8.323233,-3.51025 -1.427787,-2.31021 6.062708,-3.46342 10.213098,-1.57237 1.712578,0.7803 3.155594,0.57509 6.729938,-0.95705 8.407719,-3.60397 26.291055,-6.59873 39.404572,-6.59873 7.336942,0 12.68185,0.42282 13.944709,1.10313 1.126257,0.60671 7.061724,1.87029 13.189914,2.80794 8.41216,1.28712 12.7765,2.49537 17.8125,4.93133 8.33783,4.03307 14.2448,8.36405 15.79199,11.57864 0.73836,1.53408 2.61574,2.98548 4.94084,3.81974 2.0625,0.74003 7.03477,2.791 11.04948,4.5577 5.1201,2.25313 9.92529,3.54195 16.09421,4.31669 4.8371,0.60747 9.09514,1.4049 9.46229,1.77206 0.36716,0.36717 -0.44164,1.17296 -1.79733,1.79065 -4.32424,1.97026 -2.61577,3.31926 4.90362,3.87188 3.86853,0.28432 4.3183,-0.47668 5.68111,-9.61226 2.67687,-17.9443 2.93542,-22.76858 1.31612,-24.55787 -0.84224,-0.93067 -2.22534,-1.69213 -3.07355,-1.69213 -0.84821,0 -2.03328,-0.49108 -2.6335,-1.0913 -0.60021,-0.60021 -3.74318,-1.57088 -6.98437,-2.15705 -4.03108,-0.72901 -5.89308,-1.49502 -5.89308,-2.42433 0,-0.99205 1.17853,-1.35857 4.36852,-1.35857 2.4027,0 4.63675,-0.26529 4.96455,-0.58955 0.32782,-0.32425 -1.63802,-1.87017 -4.36852,-3.43536 -2.73051,-1.56521 -6.93041,-4.67835 -9.33313,-6.91812 -3.31911,-3.09399 -4.71247,-3.85538 -5.80001,-3.16937 -1.0926,0.68919 -2.62635,-0.19665 -6.47954,-3.74234 -10.78543,-9.92475 -23.6017,-17.33847 -34.74122,-20.09647 -6.53311,-1.61751 -23.48561,-7.7198 -31.11065,-11.19871 -2.0625,-0.94101 -5.226563,-2.00117 -7.03125,-2.35591 -7.226088,-1.4204 -16.538835,-6.15042 -12.109325,-6.15042 2.139691,0 16.382894,3.95503 17.458848,4.84795 0.988615,0.82044 6.855846,3.03599 22.775477,8.60037 2.32031,0.81102 7.49648,2.34864 11.50257,3.41693 9.66122,2.57632 18.57127,6.92807 23.95275,11.69873 5.62221,4.98407 11.41968,8.53939 11.41968,7.00315 0,-0.63156 -3.02297,-4.07681 -6.7177,-7.65613 -6.38442,-6.18496 -17.22726,-12.911 -20.81345,-12.911 -0.84224,0 -1.53135,-0.68199 -1.53135,-1.51554 0,-1.71659 1.15537,-1.55483 9.375,1.3126 3.05408,1.06542 5.27983,2.42899 5.45936,3.34461 0.16672,0.8502 0.78558,1.54583 1.37525,1.54583 0.58968,0 6.79101,5.80078 13.78075,12.89062 11.74166,11.90982 19.6223,18.98438 21.14746,18.98438 0.34252,0 1.87618,1.05469 3.40815,2.34375 1.89503,1.59456 3.91713,2.34375 6.3259,2.34375 l 3.5405,0 0.63171,-6.79688 c 1.06899,-11.50183 3.36073,-28.19999 6.33685,-46.17187 0.59771,-3.60938 1.00416,-10.16831 0.90322,-14.57541 -0.16426,-7.17153 0.095,-8.54601 2.46876,-13.08999 1.81809,-3.48023 3.37204,-5.24698 4.94068,-5.61728 1.55863,-0.36795 2.56372,-1.50023 3.15177,-3.55065 0.95926,-3.34471 3.3158,-4.02137 4.06238,-1.16647 0.26521,1.01418 1.2804,2.09729 2.25598,2.40693 0.97558,0.30964 1.77378,0.95642 1.77378,1.4373 0,1.23178 5.96955,1.09227 7.23082,-0.169 1.3763,-1.3763 3.08168,-0.24951 3.08168,2.03615 0,1.07079 0.64078,1.81967 1.557,1.81967 0.85635,0 2.77363,1.36271 4.26062,3.02825 2.59175,2.90295 2.80731,2.97002 5.21033,1.62124 1.43399,-0.80487 2.88347,-2.72059 3.38707,-4.47654 0.78935,-2.7523 1.1526,-3.00976 3.51459,-2.49098 2.48012,0.54473 2.69593,0.33365 3.6883,-3.60736 0.65178,-2.58848 2.26557,-5.36022 4.22871,-7.26297 3.10144,-3.00602 3.21842,-3.03744 5.07028,-1.36153 1.86287,1.68587 1.8956,1.66641 1.8956,-1.12752 0,-1.56366 -0.63281,-3.36819 -1.40625,-4.01009 -0.77344,-0.6419 -1.40625,-2.2355 -1.40625,-3.54134 0,-2.28913 0.0652,-2.31534 1.81593,-0.73088 3.69848,3.34709 4.42272,0.44233 2.36175,-9.47252 -0.49625,-2.38732 -0.2496,-3.15959 1.26859,-3.97211 1.14596,-0.6133 1.71644,-1.65644 1.45553,-2.6615 -0.54664,-2.10571 1.8428,-5.43442 3.26848,-4.5533 0.59384,0.36702 1.1229,3.06819 1.17568,6.00261 0.10226,5.68524 0.27296,5.4278 2.51944,-3.79967 0.44794,-1.83991 1.42395,-3.17286 2.47087,-3.37448 1.47002,-0.28309 1.63107,0.0688 1.07004,2.33809 -0.90036,3.64192 -2.27502,11.67811 -3.31894,19.40226 -0.47709,3.53011 -1.90002,9.22543 -3.16206,12.65625 -1.26205,3.43081 -3.37134,9.4019 -4.68733,13.26909 -4.90096,14.40209 -7.34664,20.95506 -8.53632,22.87234 -0.67279,1.08427 -1.94423,5.34641 -2.82542,9.47141 -0.88117,4.125 -2.41292,9.87403 -3.40387,12.77563 -0.99096,2.9016 -2.21323,8.52118 -2.71617,12.48797 -0.50294,3.96679 -1.76477,9.13466 -2.80407,11.48417 -1.0393,2.3495 -1.88963,5.84767 -1.88963,7.77371 0,1.92604 -1.19743,6.40757 -2.66095,9.95895 -1.46352,3.55139 -3.40366,8.77738 -4.31142,11.61332 -0.90775,2.83594 -2.73178,7.89844 -4.0534,11.25 -1.32161,3.35156 -2.93828,8.20312 -3.59259,10.78125 -2.58551,10.18748 -10.69716,30.56632 -17.15526,43.09909 -2.11826,4.11075 -3.85138,7.98904 -3.85138,8.61843 0,1.97266 -10.62293,12.72217 -14.0625,14.23006 -1.91726,0.84053 -6.20408,1.46972 -10.3125,1.51362 -6.35359,0.0679 -7.49428,0.38073 -11.83552,3.24618 -5.26878,3.4777 -8.98915,9.6242 -7.01828,11.59507 0.76517,0.76517 2.0072,0.0388 4.66727,-2.72954 5.42042,-5.64104 12.31153,-8.40525 12.31153,-4.9385 0,0.51151 -1.43759,1.53068 -3.19463,2.26481 -3.83749,1.60341 -7.11787,5.51356 -7.11787,8.48438 0,3.46579 1.8109,3.64009 5.06367,0.48739 2.72455,-2.64074 7.48,-4.77724 10.63327,-4.77724 1.78365,0 1.41004,2.78908 -0.46257,3.45317 -2.42729,0.86081 -4.92187,3.22311 -4.92187,4.66088 0,1.7467 8.00211,1.66216 13.10558,-0.13845 2.18148,-0.76967 4.94204,-1.15451 6.13459,-0.8552 1.58797,0.39856 2.44862,0.0203 3.21579,-1.4131 0.59345,-1.10889 1.97695,-1.9573 3.19174,-1.9573 2.43116,0 7.1648,-6.34989 7.1648,-9.61115 0,-2.41407 4.06296,-9.60911 7.54288,-13.3576 1.43605,-1.54688 3.0975,-4.65253 3.69211,-6.90145 0.71065,-2.68784 1.70155,-4.25122 2.8918,-4.56248 0.99589,-0.26043 1.86455,-0.74071 1.93035,-1.06729 0.0658,-0.32657 0.22515,-1.43753 0.35411,-2.46878 0.12894,-1.03125 0.96466,-3.66797 1.85714,-5.85938 1.25527,-3.08219 2.117,-3.98437 3.80571,-3.98437 1.97398,0 2.1317,-0.31625 1.64711,-3.30246 -0.35712,-2.20061 -0.0787,-3.84277 0.83469,-4.92187 0.75384,-0.89068 1.88221,-3.41239 2.50749,-5.6038 1.33728,-4.68674 2.65519,-5.07144 4.01459,-1.17187 1.2273,3.52064 2.63115,3.5412 6.32287,0.0926 2.43453,-2.27418 2.91165,-3.42097 2.91165,-6.99826 0,-3.4827 -0.3923,-4.48497 -2.10938,-5.38921 -4.09017,-2.15396 -4.49254,-4.17523 -1.13565,-5.70473 1.43555,-0.65407 2.18093,-1.6031 1.87836,-2.39156 -0.70701,-1.84247 1.13967,-4.92135 2.95179,-4.92135 2.04841,0 7.78988,4.46509 7.78988,6.05812 0,1.76806 5.55732,6.28026 7.31544,5.93967 1.31626,-0.255 5.80956,-7.47324 5.80956,-9.33275 0,-0.43453 -1.25078,-0.79005 -2.77952,-0.79005 -1.82437,0 -3.12596,-0.64735 -3.78772,-1.88386 -0.85183,-1.59166 -0.66139,-2.01572 1.22778,-2.73398 1.22981,-0.46757 2.93428,-1.54841 3.78773,-2.40186 2.78457,-2.78457 1.85223,-4.69933 -3.69576,-7.58997 -2.99289,-1.55938 -5.81248,-3.82178 -6.5625,-5.26565 -2.90909,-5.60037 -1.2172,-5.84158 6.20569,-0.88476 2.97736,1.9882 7.14383,3.89162 9.25884,4.22983 3.07299,0.49139 3.84546,1.00671 3.84546,2.56533 0,1.07274 0.838,3.01577 1.86222,4.31787 2.02735,2.57734 1.75085,4.02205 -0.76977,4.02205 -1.39405,0 -1.64218,1.22302 -1.85449,9.14062 -0.13479,5.02735 -0.6893,10.52776 -1.23224,12.22315 -0.77062,2.40635 -0.68713,3.54041 0.38062,5.17 0.75227,1.14811 1.65981,3.41714 2.01675,5.04229 0.35694,1.62514 1.23314,3.17896 1.94709,3.45293 0.71396,0.27398 1.9287,2.62155 2.69942,5.21684 2.30106,7.74851 7.79241,16.62194 12.28168,19.84589 2.92439,2.10014 4.17325,3.72404 4.50655,5.85989 0.68752,4.40585 -0.70029,5.16633 -4.95718,2.71638 -4.51376,-2.59779 -6.20582,-2.65481 -6.83979,-0.23049 -0.74558,2.85113 -3.5682,2.25132 -7.22044,-1.53434 -3.854,-3.99479 -12.8089,-9.71566 -15.20798,-9.71566 -0.91825,0 -3.25278,-1.42058 -5.18787,-3.15686 -4.96329,-4.45337 -6.7816,-4.76897 -16.7096,-2.9002 -8.11013,1.52659 -9.14264,1.98419 -14.41296,6.38769 -6.30514,5.26813 -7.41408,8.40513 -3.33326,9.42934 1.28906,0.32355 2.34375,1.02794 2.34375,1.56533 0,0.62681 1.513,0.7502 4.22046,0.34419 3.08961,-0.46332 4.81602,-0.24267 6.44318,0.82349 1.2225,0.80101 3.04785,1.24062 4.05633,0.97689 1.00848,-0.26372 4.39259,0.18361 7.52026,0.99407 3.12767,0.81046 6.7553,1.47356 8.06142,1.47356 1.42195,0 3.12094,0.9486 4.2345,2.36428 1.02286,1.30035 4.11207,3.15599 6.86492,4.12364 2.75285,0.96766 9.64288,3.70061 15.31118,6.07323 5.66831,2.37262 11.27171,4.31385 12.45199,4.31385 1.18029,0 3.66052,0.63281 5.51161,1.40625 3.89599,1.62785 9.95358,1.83779 12.57328,0.43577 2.17368,-1.16332 2.30854,-3.49074 0.4129,-7.12548 -0.77026,-1.47691 -1.40308,-3.1319 -1.40625,-3.67775 -0.009,-1.53211 10.57027,-6.85155 15.89905,-7.99437 4.42562,-0.94912 11.15313,-4.04798 18.59761,-8.56652 4.44147,-2.69582 5.03589,-1.08529 0.88815,2.40632 -3.44105,2.89671 -4.68793,6.24078 -2.32696,6.24078 2.39427,0 7.94291,-4.65172 9.15347,-7.67385 0.68459,-1.70907 2.65154,-4.69734 4.37101,-6.64061 2.27519,-2.57134 2.98134,-4.11071 2.59386,-5.65454 -0.35063,-1.39704 0.28497,-3.32582 1.86156,-5.64905 1.31668,-1.94024 2.39397,-4.15943 2.39397,-4.93153 0,-0.7721 0.84375,-2.30948 1.875,-3.41639 2.05789,-2.20888 2.40071,-3.53403 0.9143,-3.53403 -0.52839,0 -1.33977,0.99702 -1.80308,2.2156 -0.4633,1.21857 -1.71848,2.4447 -2.78929,2.72473 -2.70382,0.70707 -2.60685,-2.47066 0.16245,-5.32376 1.16015,-1.19526 2.56231,-2.96905 3.11591,-3.94176 2.23602,-3.92884 4.06733,-7.64649 6.16341,-12.51198 1.21278,-2.81513 3.3529,-7.24481 4.75581,-9.84375 6.90666,-12.79469 6.84543,-12.63177 5.53529,-14.72964 -0.89755,-1.43721 -1.06035,-4.01191 -0.60537,-9.57452 0.78606,-9.6106 1.07509,-10.57958 3.33162,-11.16968 1.55225,-0.40592 1.84395,-1.29965 1.84395,-5.64954 0,-2.84204 0.28247,-5.94013 0.62772,-6.88465 0.60497,-1.65509 0.55617,-1.65453 -1.34718,0.0152 -2.5713,2.25565 -3.96804,1.29137 -3.96804,-2.73945 0,-1.78204 -0.70529,-5.77686 -1.5673,-8.87736 -1.7329,-6.23285 -0.90381,-8.85908 1.90882,-6.04646 1.89885,1.89886 1.92517,1.01542 0.12789,-4.29281 -0.98543,-2.91039 -1.18828,-5.41009 -0.67858,-8.36202 1.12066,-6.49029 3.03515,-5.90459 6.76592,2.06987 l 3.19454,6.82827 -0.18292,14.53125 c -0.10061,7.99219 -0.60053,15.98192 -1.11092,17.75495 -0.73772,2.56272 -0.62532,3.55815 0.54817,4.85484 1.16886,1.29158 1.53681,4.47486 1.76757,15.29192 0.27846,13.05326 -0.19839,15.63824 -2.21879,12.02797 -1.4533,-2.59688 -2.0853,-0.94458 -2.65175,6.93262 -0.52861,7.35105 -1.5503,10.18313 -3.2865,9.1101 -0.51517,-0.3184 -0.76527,0.2028 -0.56727,1.1822 0.19477,0.96341 -1.0303,4.21796 -2.72238,7.23234 -1.69207,3.01437 -3.0765,5.79665 -3.0765,6.18282 0,0.38618 -0.76513,1.39458 -1.7003,2.24089 -1.29797,1.17465 -1.95977,1.27927 -2.79688,0.44217 -0.60311,-0.60311 -1.42001,-0.75053 -1.81532,-0.3276 -0.39531,0.42293 -0.19141,0.95731 0.45313,1.1875 0.64453,0.23019 1.17187,1.39472 1.17187,2.58785 0,2.46037 -6.42966,15.4869 -7.64407,15.4869 -0.43638,0 -0.79343,0.81885 -0.79343,1.81967 0,1.00082 -0.39942,2.06653 -0.88762,2.36825 -1.20269,0.7433 -6.22814,8.2586 -8.49889,12.70966 -1.0154,1.99034 -3.32818,4.74917 -5.13952,6.13075 -1.81132,1.38156 -3.81913,3.58369 -4.46178,4.8936 -1.29541,2.64045 -5.12282,4.26691 -15.01236,6.3795 -3.48916,0.74534 -7.09712,2.10836 -8.01769,3.02893 -2.39934,2.39934 -17.66389,5.50692 -19.97146,4.06581 -0.95438,-0.59602 -3.86715,-1.08367 -6.47281,-1.08367 -2.88746,0 -6.17284,-0.73222 -8.41287,-1.875 -2.02142,-1.03125 -4.53213,-1.875 -5.57935,-1.875 -3.08504,0 -16.11493,-4.81237 -20.41704,-7.54068 -5.91034,-3.74824 -11.5192,-5.09649 -15.59962,-3.74983 -2.54326,0.83935 -5.50345,0.83089 -12.65763,-0.0362 -9.33487,-1.13136 -9.33948,-1.1309 -13.56851,1.34748 -2.32677,1.36357 -5.46106,2.47922 -6.96511,2.47922 -3.61164,0 -5.6996,2.48043 -6.40205,7.60542 -0.801,5.84392 -4.49926,7.89541 -15.84846,8.79143 -4.63704,0.36609 -9.65595,1.25626 -11.15314,1.97814 -3.45041,1.66364 -4.83405,1.58141 -9.46534,-0.56249 z m 165.8246,-17.89118 c 1.35116,-1.06283 2.45665,-2.37886 2.45665,-2.92453 0,-1.31818 -5.51652,-0.39361 -9.81122,1.64436 -2.06297,0.97894 -4.4024,1.3755 -6.1053,1.03493 -1.51843,-0.3037 -2.9907,-0.18014 -3.27172,0.27455 -0.72926,1.17996 0.72778,1.49476 7.92209,1.7116 5.18405,0.15626 6.80481,-0.16403 8.8095,-1.74091 z m 8.74064,-4.11485 c 1.13588,-0.32576 2.68558,-1.8358 3.44377,-3.35564 0.7582,-1.51983 1.24815,-2.76333 1.0888,-2.76333 -1.16889,0 -5.61526,2.99589 -7.55876,5.09296 -2.45198,2.64574 -2.52963,2.6194 3.02619,1.02601 z M 185.9222,387.47402 c 3.70373,-0.2154 7.6756,-0.58504 8.82637,-0.82141 2.95062,-0.60608 4.93893,-5.06075 4.93893,-11.06537 0,-3.94992 0.49391,-5.74084 2.14587,-7.78093 2.94299,-3.63446 4.41663,-7.31043 4.41663,-11.01718 0,-1.71746 0.69391,-4.7562 1.54202,-6.75277 0.84811,-1.99655 2.91748,-7.54897 4.5986,-12.33869 1.68114,-4.78971 4.65288,-11.0263 6.60389,-13.85907 3.2384,-4.70202 3.45917,-5.4131 2.53541,-8.16642 -0.55653,-1.65876 -1.76577,-6.89033 -2.68722,-11.62571 -1.38213,-7.10285 -1.46207,-8.86677 -0.45674,-10.07812 0.67024,-0.80759 1.79978,-1.46835 2.51008,-1.46835 1.50469,0 1.61176,-1.23933 0.45541,-5.27126 -1.86212,-6.49283 2.64071,-6.669 4.7919,-0.18748 1.06556,3.21053 1.84338,4.11197 3.74376,4.3388 l 2.39877,0.28632 -2.20737,-4.50507 c -1.21406,-2.47778 -2.22057,-5.62009 -2.23669,-6.98288 -0.0419,-3.54119 2.43815,-4.11941 4.32196,-1.00766 0.84838,1.40139 2.26647,3.61082 3.15131,4.90986 0.88484,1.29904 1.91484,3.32617 2.2889,4.50474 0.63885,2.01281 2.79936,2.5833 2.30993,0.60994 -0.7322,-2.95219 -4.34918,-9.95487 -7.08749,-13.72177 -4.66076,-6.41145 -8.67907,-16.88877 -9.38328,-24.4659 -0.56338,-6.06172 -0.48171,-6.48951 1.17889,-6.17497 1.31592,0.24925 2.03028,1.5969 2.72171,5.13459 0.83063,4.2498 1.74836,5.5861 8.05013,11.72169 3.91195,3.80879 7.6543,7.93719 8.31634,9.17422 1.88719,3.52625 3.22222,0.24226 1.89908,-4.67147 -0.81816,-3.03841 -1.69372,-4.1099 -4.22138,-5.16603 -2.47475,-1.03402 -3.40651,-2.1398 -4.15956,-4.93645 -0.53375,-1.98218 -1.81598,-4.36916 -2.8494,-5.30439 -1.03343,-0.93524 -1.87896,-2.12256 -1.87896,-2.63852 0,-0.51594 -1.0071,-2.25845 -2.238,-3.87225 -1.2309,-1.61379 -2.91396,-5.57269 -3.74013,-8.79755 -0.82617,-3.22486 -2.57713,-8.13576 -3.89102,-10.91309 -2.31258,-4.88838 -2.44975,-8.5725 -0.42008,-11.28217 0.90304,-1.20557 2.18653,-8.90625 1.48444,-8.90625 -0.29265,0 -1.43332,1.76652 -2.5348,3.9256 -2.49949,4.89942 -4.27339,6.71203 -5.94199,6.07173 -0.95384,-0.36602 -1.42074,0.66162 -1.7689,3.89332 -0.26015,2.41483 -1.15439,7.13279 -1.9872,10.48435 -3.61727,14.55744 -5.24471,23.74402 -6.22809,35.15625 -0.57761,6.70312 -1.38395,14.71875 -1.79187,17.8125 -4.30275,32.63191 -6.7146,49.08522 -7.44096,50.7611 -0.47941,1.10611 -1.36994,6.37954 -1.97897,11.71875 -0.60903,5.33921 -1.67844,10.35769 -2.37647,11.15219 -0.69803,0.79449 -1.75747,3.74762 -2.35431,6.5625 -2.42003,11.41359 -6.25063,14.96171 -16.15289,14.96171 -5.9941,0 -10.31355,1.31252 -14.46689,4.39593 -4.52162,3.35685 -3.90379,6.50712 0.78414,3.99822 2.38765,-1.27784 4.1519,-0.26188 2.66222,1.53307 -1.23204,1.48451 -1.24146,1.48151 5.21813,1.66128 2.97353,0.0828 4.72555,0.55757 4.80469,1.30212 0.0685,0.64454 0.17731,1.36859 0.24176,1.60901 0.0644,0.24043 1.62203,-0.45074 3.46126,-1.53592 2.28743,-1.34961 5.47189,-2.0968 10.07813,-2.36469 z m 32.77467,-33.56777 c 1.77144,-3.60938 4.07009,-8.88281 5.10811,-11.71875 4.59229,-12.54647 7.14045,-20.51652 8.06685,-25.23126 0.93374,-4.75204 0.86613,-5.16203 -1.06232,-6.44247 -1.38229,-0.91781 -2.06477,-2.33176 -2.07549,-4.29999 -0.008,-1.6129 -1.19898,-4.94156 -2.64486,-7.39705 -4.37643,-7.43239 -4.63828,-4.35114 -0.81758,9.62077 2.68579,9.82164 3.13519,15 1.30178,15 -0.81537,0 -1.91905,1.48806 -2.57274,3.46872 -0.62962,1.90781 -2.31135,5.59921 -3.73717,8.20313 -4.14845,7.57619 -6.51345,15.39362 -6.51345,21.53003 0,6.57999 0.516,6.2949 4.94687,-2.73313 z m -60.07858,5.24023 c 4.59844,-2.65636 14.50644,-5.08729 21.06619,-5.1686 3.17804,-0.0394 6.07517,-0.3672 6.43807,-0.72844 0.36291,-0.36125 0.8692,-2.51437 1.1251,-4.7847 0.42064,-3.73192 0.25272,-4.18477 -1.75056,-4.72101 -1.21872,-0.32622 -4.44423,-0.59889 -7.16783,-0.60593 -2.72359,-0.008 -6.50434,-0.66142 -8.40169,-1.45418 -6.07808,-2.53958 -13.40656,-2.80515 -17.63192,-0.63894 -4.18109,2.14352 -7.4248,5.39535 -8.15363,8.17407 -0.27049,1.03125 -0.81588,2.66578 -1.21198,3.63229 -0.69317,1.69138 -0.6271,1.6963 1.7614,0.13129 3.51317,-2.30191 5.62937,-1.26468 4.83148,2.36808 -0.58575,2.66689 -0.47719,2.81452 1.6728,2.27491 1.8063,-0.45335 2.4082,-0.16019 2.80771,1.36756 0.62208,2.37884 0.75505,2.38327 4.61486,0.1536 z m 235.09848,-16.72461 c 0.0183,-1.16015 -0.31786,-2.10937 -0.74698,-2.10937 -1.05093,0 -3.03539,6.63541 -2.32716,7.78134 0.7481,1.21047 3.03213,-3.00368 3.07414,-5.67197 z m -206.35106,-6.69404 c 1.58923,-1.00698 0.62156,-1.62557 -3.85723,-2.46581 -3.56923,-0.66959 -4.43675,0.12221 -2.38348,2.17548 1.30681,1.30681 4.40875,1.45112 6.24071,0.29033 z m 49.82179,-36.12961 c 0,-1.11048 -2.36036,-4.28572 -3.18585,-4.28572 -0.13167,0 -0.0536,1.26562 0.17337,2.8125 0.4099,2.79277 3.01248,4.06553 3.01248,1.47322 z M 60.233789,298.1576 c 5.153958,-1.06648 11.091253,-3.90119 9.380902,-4.47882 -1.248049,-0.4215 -12.55156,1.95204 -16.567454,3.47888 -3.305767,1.25685 -3.182358,3.22893 0.155888,2.49111 1.417969,-0.31341 4.581768,-0.98444 7.030664,-1.49117 z M 242.8125,279.43033 c 0,-1.00082 -0.41519,-2.07628 -0.92265,-2.3899 -0.50747,-0.31363 -1.26156,-1.87809 -1.67576,-3.47656 -0.44274,-1.70859 -1.60794,-3.22255 -2.82735,-3.67364 -2.90121,-1.07322 -2.76304,1.39827 0.22334,3.99488 1.26366,1.09875 2.5628,3.20533 2.88698,4.68131 0.66526,3.02888 2.31544,3.64458 2.31544,0.86391 z m 5.66473,-23.8281 c -1.25175,-1.25175 -3.3508,0.64511 -2.40583,2.17411 0.48637,0.78696 1.01347,0.76972 2.02055,-0.0661 0.94528,-0.78451 1.06326,-1.43005 0.38528,-2.10803 z m 5.58527,-12.7344 c 0,-1.83931 -1.58514,-3.47018 -2.49173,-2.56361 -0.73617,0.73618 0.60959,4.38328 1.61741,4.38328 0.48087,0 0.87432,-0.81885 0.87432,-1.81967 z m -22.16187,-15.41655 c -0.49154,-3.58618 -0.31933,-4.03387 1.94921,-5.0675 1.36861,-0.62357 2.9732,-1.13378 3.56575,-1.13378 0.59256,0 2.68209,-1.11206 4.64339,-2.47125 2.42714,-1.68201 3.56602,-3.17906 3.56602,-4.6875 0,-2.38342 -2.28015,-3.08077 -3.09868,-0.9477 -0.26773,0.6977 -3.85769,2.91254 -7.97768,4.92187 -7.23691,3.52947 -7.47389,3.74868 -6.98954,6.46583 0.27574,1.54688 0.86743,3.21328 1.31488,3.70313 0.44744,0.48984 0.81352,1.63676 0.81352,2.5487 0,1.07256 0.48595,1.4716 1.37615,1.13 1.03505,-0.39719 1.24251,-1.50311 0.83698,-4.4618 z m 25.9735,-11.85926 c 2.54283,-1.36089 2.25712,-2.77952 -0.5598,-2.77952 -1.30525,0 -2.61601,-0.63281 -2.9128,-1.40625 C 254.10472,210.63281 253.31995,210 252.65758,210 c -1.33249,0 -2.72172,4.25712 -1.84969,5.66812 0.73207,1.1845 4.79249,1.14077 7.06624,-0.0761 z M 217.5,208.88332 c 0,-2.8318 -0.0736,-2.89443 -1.37644,-1.17188 -1.78757,2.36338 -1.80046,4.16356 -0.0298,4.16356 0.95621,0 1.40625,-0.95741 1.40625,-2.99168 z M 252.375,342 c -1.31908,-1.31908 -1.50773,-6.0278 -0.2721,-6.79147 1.71203,-1.05808 3.65116,0.61518 4.08669,3.52636 0.57082,3.81549 -1.49552,5.58418 -3.81459,3.26511 z m 13.47322,-22.84822 C 263.87025,317.17382 263.98245,315 266.0625,315 c 2.35923,0 3.80651,1.70464 3.25097,3.82906 -0.57046,2.18141 -1.51829,2.26969 -3.46525,0.32272 z M 123.75,317.6398 c -3.35156,-0.47983 -13.02728,-0.64962 -21.50159,-0.37728 -14.106365,0.4533 -15.281488,0.36877 -13.911923,-1.0008 3.202695,-3.20269 48.538513,-1.65509 48.538513,1.65693 0,1.00364 -4.89328,0.89968 -13.125,-0.27885 z m 147.90212,-3.64596 c -2.05267,-1.1959 -3.79204,-4.36924 -3.05157,-5.56734 0.3455,-0.55904 1.88501,-0.35707 3.99342,0.52388 4.07356,1.70204 6.93452,4.10532 6.23484,5.23742 -0.67933,1.09918 -5.1652,0.97795 -7.17669,-0.19396 z m 19.44163,-16.35834 c -2.57813,-1.26822 -5.87539,-2.30972 -7.32726,-2.31443 -3.21906,-0.0104 -6.52037,-1.65182 -5.76867,-2.8681 0.30268,-0.48976 2.52329,-0.89047 4.93467,-0.89047 5.46822,0 14.25501,4.13962 14.25501,6.7158 0,2.19198 -0.42141,2.14752 -6.09375,-0.6428 z M 8.0488842,296.37966 c -0.2745999,-0.44431 3.1809708,-1.94037 7.6790468,-3.32456 4.498076,-1.3842 9.473896,-2.9191 11.05738,-3.41091 1.583483,-0.49181 3.713952,-0.89419 4.734375,-0.89419 1.020422,0 2.256095,-0.35968 2.745939,-0.79928 1.976219,-1.77356 21.791722,-5.76281 28.626416,-5.76306 2.36406,-9e-5 6.793748,-0.81916 9.84375,-1.82017 7.378968,-2.42176 17.919365,-4.05617 19.706946,-3.05579 2.289547,1.2813 -0.151229,2.5803 -8.067737,4.29373 -3.867188,0.837 -9.773438,2.1409 -13.125,2.89756 -3.351563,0.75666 -10.797851,1.56259 -16.547309,1.79096 -5.749457,0.22835 -11.266329,0.85018 -12.259713,1.38182 -0.993385,0.53164 -4.093971,1.2579 -6.890191,1.61392 -2.79622,0.35602 -5.505912,0.95642 -6.021537,1.33424 -0.515625,0.37782 -1.992188,0.91675 -3.28125,1.1976 -1.289063,0.28086 -5.442755,1.6031 -9.230428,2.93831 -7.5953383,2.67748 -8.2445694,2.7947 -8.9706878,1.61982 z M 0.46875,292.5 c -0.31867377,-0.51563 -0.29318101,-1.40063 0.0566506,-1.96666 1.33878201,-2.1662 9.41273031,-6.5044 16.49549741,-8.86318 4.061291,-1.35253 7.904744,-2.9496 8.541008,-3.54903 0.636264,-0.59944 2.844344,-1.15512 4.906844,-1.23486 9.663302,-0.37361 21.205367,-1.62091 21.649534,-2.33959 0.582193,-0.94201 -0.06458,-1.00271 -12.267122,-1.15134 -7.647433,-0.0931 -9.36895,-0.37232 -9.375,-1.52034 -0.0053,-1.01487 -1.638157,-1.62472 -5.866787,-2.19123 -4.312091,-0.57769 -5.859375,-1.16635 -5.859375,-2.2292 0,-1.14363 0.731682,-1.32741 3.515625,-0.88301 12.800216,2.04329 16.542497,1.87596 27.513684,-1.23027 14.950423,-4.23285 13.677693,-3.73856 12.114253,-4.70482 -0.734327,-0.45384 -3.464692,-1.09074 -6.067477,-1.41534 -9.233844,-1.15157 -29.442152,-9.66247 -28.099786,-11.83447 0.711266,-1.15085 3.701169,-0.19725 7.886399,2.51528 6.552163,4.2466 18.851245,6.77455 36.106052,7.42122 10.654962,0.39933 19.494472,1.49386 20.849053,2.58158 2.326172,1.86789 -0.04397,2.59544 -8.482506,2.60381 -8.058615,0.008 -19.277885,2.12888 -30.632869,5.79083 -2.853741,0.92032 -3.031369,1.14514 -1.40625,1.77986 1.023039,0.39956 4.272613,0.75613 7.221274,0.79236 4.364192,0.0536 5.260848,0.32742 4.821572,1.47215 -0.335463,0.87421 -1.764049,1.40625 -3.775905,1.40625 -1.918788,0 -3.000399,0.38166 -2.656869,0.9375 0.714549,1.15616 4.614342,1.22335 6.809596,0.11731 5.532697,-2.78754 27.942471,-5.88802 31.787851,-4.39796 1.642116,0.63631 1.637662,0.72152 -0.104756,2.00386 -1.000894,0.73661 -3.743083,1.33979 -6.09375,1.3404 -4.502673,9.3e-4 -16.913539,2.11103 -18.619449,3.16534 -2.209189,1.36536 -18.437158,3.53785 -22.542533,3.01784 -2.399078,-0.30387 -4.994772,-0.61266 -5.768209,-0.6862 -0.773438,-0.0735 -4.78125,0.32376 -8.90625,0.88287 -9.137627,1.23856 -18.237113,4.56547 -26.1422382,9.55801 -6.4706639,4.08659 -6.7545844,4.1915 -7.6077618,2.81103 z m 298.09655,-5.85938 c -0.36411,-2.1914 -1.24494,-5.12357 -1.95741,-6.51594 -0.71246,-1.39236 -1.29539,-2.9744 -1.29539,-3.51562 0,-1.90945 3.02881,-0.95079 5.56126,1.7602 2.26383,2.42344 3.02021,2.68301 6.46988,2.22031 2.1485,-0.28817 3.90636,-0.22914 3.90636,0.13119 0,0.36033 -1.37109,2.04453 -3.04688,3.74265 -1.67578,1.69813 -3.59085,3.77918 -4.25571,4.62455 -2.3231,2.95383 -4.66136,1.89059 -5.38211,-2.44734 z m 2.42248,-13.61103 c -1.48446,-2.43972 -3.79054,-5.75937 -5.12464,-7.37701 -2.74249,-3.32535 -3.14451,-6.42611 -0.94271,-7.27103 2.96132,-1.13637 5.95912,-0.55405 6.98142,1.35612 1.62103,3.02893 6.60277,5.56746 10.93344,5.57132 4.10854,0.004 6.13708,1.50564 3.92545,2.90647 -0.7106,0.45008 -3.72581,0.82479 -6.70047,0.83269 l -5.40849,0.0143 0.56491,2.57812 c 0.31071,1.41797 0.71398,3.07056 0.89617,3.67242 0.18218,0.60185 -0.28916,1.33235 -1.04742,1.62333 -0.92618,0.35541 -2.2645,-0.92683 -4.07766,-3.90678 z m 11.7283,-10.65002 c -1.3619,-1.07128 -2.40358,-2.84574 -2.40358,-4.09443 0,-1.21208 -1.05469,-3.45721 -2.34375,-4.98917 -2.50385,-2.97565 -3.13323,-6.73347 -1.12777,-6.73347 0.6688,0 2.8638,1.6875 4.87777,3.75 3.26626,3.34495 4.14754,3.75 8.15902,3.75 5.36795,0 6.04911,-1.79091 1.45109,-3.81518 -1.67537,-0.73759 -3.19389,-2.13655 -3.37447,-3.10881 -0.28186,-1.5175 0.0498,-1.66914 2.34301,-1.0713 11.16972,2.912 22.54475,0.40908 28.62166,-6.2978 2.65174,-2.92663 4.51844,-2.78667 4.51844,0.33877 0,2.61571 -5.36584,7.24697 -9.84375,8.49614 -6.64362,1.85333 -13.58551,5.62591 -15.62652,8.49226 -2.08547,2.92877 -2.19164,2.93982 -10.38911,1.08171 -1.93201,-0.43792 -2.57812,-0.2297 -2.57812,0.83086 0,0.77839 0.63281,1.65808 1.40625,1.95488 1.7819,0.68377 1.81264,2.11692 0.0598,2.78953 -0.74052,0.28417 -2.42802,-0.33413 -3.75,-1.37399 z m -191.30983,-7.77376 c -3.09375,-1.19781 -7.94531,-2.66003 -10.78125,-3.24939 -8.50649,-1.7678 -32.882555,-4.77115 -38.90625,-4.79359 -8.222747,-0.0307 -12.65625,-0.93491 -12.65625,-2.58142 0,-1.18457 1.325298,-1.30072 8.671875,-0.76005 4.769531,0.35101 10.148437,0.612 11.953125,0.57998 5.616337,-0.0997 22.6305,1.87979 27.60265,3.21134 15.36694,4.11531 23.02235,7.00324 23.02235,8.68492 0,1.69502 -2.49983,1.38857 -8.90625,-1.09179 z m -25.210453,0.65249 c -0.373566,-0.37357 -8.35403,-0.70348 -17.734375,-0.73314 -13.317771,-0.0421 -18.595971,-0.43499 -24.086422,-1.79278 -12.341049,-3.05193 -19.992029,-5.67721 -20.437157,-7.0126 -0.508353,-1.52506 -0.07469,-1.45307 13.874657,2.3034 8.624426,2.3225 11.295326,2.62837 21.5625,2.46931 13.29023,-0.20589 35.50352,1.51507 37.26563,2.88712 0.64453,0.50186 1.17187,1.28269 1.17187,1.73518 0,0.98534 -10.643391,1.11682 -11.616703,0.14351 z M 402.49222,241.64062 c -0.4743,-0.64453 -2.07391,-3.70312 -3.5547,-6.79687 -1.48077,-3.09375 -3.7572,-6.78794 -5.05874,-8.2093 -2.78906,-3.04587 -2.10299,-4.19915 3.21099,-5.39765 3.84257,-0.86663 7.35103,0.27436 6.72189,2.18604 -0.20062,0.60963 -1.28095,1.24322 -2.40072,1.40799 -1.11977,0.16476 -2.03594,0.71306 -2.03594,1.21843 0,1.28413 2.73636,6.4816 4.82006,9.1553 2.06076,2.64425 2.35499,7.60794 0.45098,7.60794 -0.7103,0 -1.67952,-0.52734 -2.15382,-1.17188 z m -81.18381,-0.7451 c -2.50908,-1.52744 -0.92634,-2.93511 2.92689,-2.60313 3.24073,0.27921 3.42095,0.14674 3.42095,-2.51446 0,-2.285 -0.43732,-2.86968 -2.34375,-3.13339 -1.28906,-0.17831 -2.90918,-0.78892 -3.60028,-1.35692 -2.1574,-1.77313 1.22049,-3.489 4.83038,-2.4537 4.36737,1.25254 5.01027,1.10928 7.73935,-1.72454 1.65311,-1.71657 2.63177,-2.18651 2.92856,-1.40625 0.99128,2.60614 2.16449,0.91558 2.16449,-3.11899 0,-3.44495 0.51519,-4.80607 2.6133,-6.90416 3.12498,-3.12498 7.71496,-5.58439 9.33982,-5.00447 1.29307,0.46149 1.5291,5.83163 0.56534,12.86298 -0.49118,3.58357 -1.05512,4.59574 -2.96517,5.32194 -3.47507,1.32123 -1.32944,2.76424 2.74411,1.8455 3.42188,-0.77176 6.92986,0.26339 5.99865,1.77012 -0.27136,0.43907 -2.24512,1.09426 -4.38616,1.45598 -4.4466,0.75125 -7.61672,2.02434 -11.37991,4.57007 -1.88563,1.27561 -2.91269,1.49019 -3.64195,0.76093 -0.72926,-0.72926 -1.57493,-0.65768 -2.99874,0.25383 -2.71585,1.73866 -11.87778,2.64374 -13.95588,1.37866 z M 326.25,226.03871 c -1.98041,-0.54871 -2.4333,-1.36989 -2.92139,-5.29717 -0.65561,-5.27517 0.26743,-7.08224 2.71281,-5.311 0.88816,0.64332 2.98592,1.79965 4.6617,2.56963 3.29749,1.51515 3.86269,3.28068 1.64063,5.12483 -0.77344,0.6419 -1.40625,1.74824 -1.40625,2.45854 0,1.38489 -0.98631,1.48067 -4.6875,0.45517 z m 29.51825,-3.87225 c -1.11544,-1.80482 0.45464,-9.35396 1.94544,-9.35396 1.82938,0 1.85117,7.791 0.0261,9.30573 -0.96878,0.80402 -1.49639,0.81693 -1.97147,0.0483 z M 388.75,214.0625 c -0.34375,-0.34375 -0.625,-1.54399 -0.625,-2.6672 0,-1.12321 -0.88694,-2.84487 -1.97098,-3.82591 -1.08404,-0.98105 -2.61995,-3.05033 -3.41313,-4.59843 -0.79317,-1.54809 -3.70311,-5.1033 -6.46652,-7.90046 -4.85635,-4.91568 -6.22045,-7.95306 -3.91665,-8.72099 0.62608,-0.2087 -0.36979,-1.71375 -2.2904,-3.46148 -3.89382,-3.54328 -6.31442,-9.64721 -6.3235,-15.94566 -0.004,-2.69929 -0.69577,-5.32738 -1.86882,-7.09862 -1.02445,-1.54688 -1.86543,-4.15793 -1.86882,-5.80236 -0.005,-2.13595 -1.07797,-4.22821 -3.75894,-7.32582 -2.72487,-3.14836 -3.61263,-4.89724 -3.24121,-6.38514 0.36177,-1.44923 -0.73533,-3.81826 -3.74725,-8.09163 C 346.91645,128.91545 345,125.85685 345,125.44192 c 0,-1.98698 3.78207,-0.41513 5.51593,2.29246 1.07312,1.67578 3.83971,5.53266 6.14797,8.57085 3.43875,4.52617 4.02337,5.84809 3.23655,7.31829 -0.7806,1.45856 -0.37871,2.44992 2.14775,5.2979 1.70943,1.92696 4.87303,4.93748 7.0302,6.69002 4.29486,3.48925 5.22689,5.43779 3.81112,7.96765 -1.03068,1.84172 0.45169,8.04292 2.68473,11.23102 1.71416,2.44731 1.65841,5.18989 -0.1055,5.18989 -2.43046,0 -1.55026,1.66131 2.81227,5.30793 4.83357,4.04036 6.00416,6.51301 3.84429,8.12029 -1.30764,0.97309 -1.09678,1.58792 1.78998,5.21934 1.79972,2.26397 3.27221,4.50034 3.27221,4.96971 0,0.46937 1.42298,1.44796 3.16219,2.17465 1.7392,0.72668 3.3872,2.18172 3.66223,3.23342 0.29659,1.13416 1.27612,1.91216 2.40748,1.91216 2.41201,0 3.60796,1.82359 1.90384,2.90296 -1.51913,0.96219 -8.66729,1.12799 -9.57324,0.22204 z m -17.9398,-41.43069 c -0.34002,-1.54811 -1.22392,-3.31744 -1.96421,-3.93183 -1.10606,-0.91794 -1.34599,-0.716 -1.34599,1.13288 0,2.29955 2.6308,6.91134 3.46609,6.07605 0.25428,-0.25429 0.18413,-1.72898 -0.15589,-3.2771 z m -33.44255,39.69791 c -1.36186,-0.73985 -4.52592,-2.03449 -7.03125,-2.87698 -7.32716,-2.46394 -8.76272,-4.41553 -4.45325,-6.05398 2.05897,-0.78282 2.25795,-1.156 1.25848,-2.36028 -0.87612,-1.05567 -0.9121,-1.70551 -0.13734,-2.48027 0.77478,-0.77478 2.13703,-0.0889 5.19944,2.61785 2.28229,2.01723 5.56777,4.51714 7.30107,5.55536 2.13378,1.2781 3.24724,2.7161 3.44809,4.45312 0.34401,2.97503 -1.51532,3.35627 -5.58524,1.14518 z m -145.67342,-5.84535 c 0.96193,-7.85329 3.80968,-15.5876 7.53746,-20.47127 1.79757,-2.35495 3.25428,-5.19862 3.23712,-6.31929 -0.0305,-1.99148 -0.0728,-1.98456 -1.87467,0.30619 -3.47705,4.42062 -3.88903,4.78712 -4.97486,4.42562 -2.14541,-0.71428 -1.56068,-3.1914 2.08473,-8.83155 3.359,-5.19703 6.85166,-7.91339 8.30555,-6.45951 0.30567,0.30567 -0.008,1.60918 -0.69706,2.89669 -0.68905,1.28751 -1.07641,2.45239 -0.86078,2.58862 0.21561,0.13622 2.07953,1.1653 4.14203,2.28683 4.00545,2.17805 5.3833,5.71673 3.2342,8.30624 -1.67682,2.02044 -2.39727,1.66422 -3.43287,-1.69731 l -0.93866,-3.04688 -1.12946,2.8125 c -0.62121,1.54688 -2.39273,4.12249 -3.93674,5.72358 -2.26401,2.3477 -3.06033,4.36054 -4.11483,10.40088 -1.61683,9.2614 -3.00833,12.46929 -5.4089,12.46929 -1.68246,0 -1.77846,-0.44144 -1.17226,-5.39063 z m 9.0405,-0.5709 c -1.2313,-1.48363 0.23313,-6.37722 3.61661,-12.08535 3.26253,-5.5041 6.94947,-4.32529 4.36587,1.39588 -0.75935,1.68149 -1.66903,4.11194 -2.02153,5.401 -0.81287,2.97256 -3.05709,6.5625 -4.1025,6.5625 -0.4406,0 -1.27691,-0.57332 -1.85845,-1.27403 z m 123.77871,-17.04415 c -2.16869,-2.75705 -2.55821,-6.3769 -1.09914,-10.21454 1.04138,-2.73906 3.7732,-3.26228 3.7732,-0.72268 0,0.92515 1.6875,3.49178 3.75,5.70361 3.82378,4.10063 4.7733,6.67679 2.46094,6.67679 -0.70899,0 -2.54513,0.25121 -4.08031,0.55825 -2.2857,0.45714 -3.15591,0.0946 -4.80469,-2.00143 z m -177.79469,-6.04294 -5.625,-7.29669 -2.34375,1.66169 c -3.11884,2.21121 -11.64639,4.68362 -16.15421,4.68362 -3.87313,0 -8.89771,-2.14493 -10.7691,-4.5972 -0.62813,-0.8231 -1.20442,-3.60593 -1.28063,-6.18405 -0.0762,-2.57813 -0.32613,-3.97713 -0.55536,-3.10889 -0.41141,1.55818 -1.62075,1.96042 -9.44382,3.14111 -3.210155,0.48449 -3.98438,0.32323 -3.98438,-0.82987 0,-1.00033 1.340663,-1.60728 4.45313,-2.01603 8.23388,-1.08133 8.6978,-2.00537 1.36935,-2.72749 -6.433796,-0.63397 -6.976871,-0.53676 -9.672677,1.73162 -2.87125,2.41599 -5.524803,3.15218 -5.524803,1.53277 0,-1.49577 2.833611,-3.78791 5.456182,-4.41359 1.381915,-0.32968 3.009227,-0.98931 3.616249,-1.46585 0.677635,-0.53196 3.742379,-0.50077 7.939089,0.0808 3.75947,0.52098 6.98379,0.79884 7.16517,0.61748 0.18137,-0.18138 0.43648,-10.28674 0.56691,-22.45636 0.2658,-24.79991 0.52765,-23.78629 -6.69672,-25.92288 -2.361,-0.69825 -3.98438,-1.74346 -3.98438,-2.5653 0,-1.13305 -0.96371,-1.27367 -5.264513,-0.76819 l -5.264505,0.61874 0.66212,-3.52941 c 0.843596,-4.49674 1.097822,-4.87026 4.088832,-6.00745 3.70531,-1.40875 8.292336,-0.25119 8.931766,2.25398 0.37805,1.48108 1.82627,2.50108 5.00108,3.52232 3.16516,1.01813 5.10462,2.38082 6.64791,4.67092 2.04973,3.04158 2.13412,3.73495 1.42253,11.68748 -0.69919,7.81394 -0.76674,13.89855 -0.26038,23.45408 0.10929,2.0625 -0.0999,8.07422 -0.46498,13.35937 -0.36504,5.28516 -0.47886,9.60938 -0.25293,9.60938 0.22593,0 1.76771,-0.47303 3.42619,-1.05117 2.73144,-0.95219 3.39909,-0.77563 7.09003,1.875 2.24103,1.60939 4.58733,2.92617 5.21399,2.92617 0.62664,0 2.87799,-1.46343 5.00298,-3.25207 9.06297,-7.62841 9.37619,-8.13751 5.14283,-8.35889 -3.09212,-0.16169 -3.21698,-2.2939 -0.17393,-2.96991 8.78041,-1.95056 9.10382,-2.31735 15.24897,-17.29413 3.44429,-8.39432 3.25533,-8.11888 8.20016,-11.95313 9.66858,-7.49705 10.55427,-0.41783 1.22485,9.79004 -5.2034,5.69336 -8.7759,12.15322 -9.62518,17.40444 -0.42929,2.6544 -1.75302,4.61841 -5.3709,7.96875 l -4.8012,4.44615 6.04807,4.6875 c 3.32643,2.57812 5.88695,4.95697 5.69002,5.28632 -0.19692,0.32935 1.11441,1.72191 2.91407,3.09458 3.76099,2.86865 4.3845,5.50358 1.1935,5.04368 -1.18234,-0.17041 -3.17529,-1.93577 -4.62204,-4.09424 -2.80725,-4.18824 -13.5189,-13.08856 -14.27666,-11.86248 -0.26321,0.42589 2.01736,3.97525 5.06792,7.88749 4.16293,5.3388 5.26045,7.3468 4.39982,8.04981 -0.8387,0.68509 -2.6574,-1.02304 -6.77167,-6.36004 z m 83.90625,3.88154 c 0,-4.6328 0.75055,-6.70792 2.42619,-6.70792 3.02647,0 2.22331,9.55415 -0.85299,10.14686 -1.26047,0.24287 -1.5732,-0.44074 -1.5732,-3.43894 z m -48.38116,0.63043 c -0.73184,-1.18415 5.81009,-7.30032 7.83428,-7.3244 2.08853,-0.0248 1.24504,2.35983 -1.91963,5.42714 -3.28666,3.18556 -4.81536,3.67593 -5.91465,1.89726 z m 57.15769,-2.1821 c -0.75356,-1.96374 0.2727,-4.21875 1.91997,-4.21875 1.88108,0 2.66944,1.51397 1.95709,3.75839 -0.69622,2.19358 -3.10233,2.47928 -3.87706,0.46036 z m 7.16674,-2.79733 c -1.65777,-4.36026 -0.89961,-8.92142 1.48292,-8.92142 1.57166,0 2.50458,3.35263 2.09601,7.53246 -0.38123,3.90017 -2.33577,4.65872 -3.57893,1.38896 z m 34.5411,-4.16872 c -0.0773,-3.12961 -0.18281,-6.21754 -0.23437,-6.86208 -0.052,-0.64999 0.95,-1.17187 2.25,-1.17187 2.27678,0 2.34375,0.1875 2.34375,6.5625 0,6.09179 -0.1513,6.58399 -2.10938,6.86208 -1.9762,0.28067 -2.11825,-0.0596 -2.25,-5.39063 z m 74.49612,2.15859 c -0.37315,-0.9724 0.19378,-2.11415 1.56233,-3.14645 1.90972,-1.4405 2.07421,-2.1123 1.48283,-6.05597 -0.58293,-3.88721 -0.46631,-4.39658 0.94311,-4.11918 0.97911,0.19273 2.10112,1.96698 2.86803,4.53531 1.90769,6.38864 1.717,7.80055 -0.98378,7.28426 -1.6466,-0.31476 -2.39662,0.0423 -2.72473,1.29696 -0.55968,2.14022 -2.36019,2.25752 -3.14779,0.20507 z m -102.42566,-5.36082 c -0.49182,-1.29358 -1.02175,-3.94965 -1.17765,-5.90242 -0.21779,-2.72821 0.0845,-3.62603 1.30525,-3.87675 2.91046,-0.59773 4.78687,10.80719 1.93271,11.74709 -0.64135,0.21121 -1.56849,-0.67436 -2.06031,-1.96792 z m -61.44642,-2.46425 c -0.76944,-1.24499 2.15859,-5.10888 5.28624,-6.97585 5.50259,-3.2846 6.23988,-0.56237 1.01032,3.7303 -4.74841,3.89772 -5.61684,4.34536 -6.29656,3.24555 z m -10.78807,-1.85035 c -1.68717,-1.09524 -0.76317,-2.07724 3.55994,-3.78345 3.61138,-1.42531 5.55102,-0.32822 3.70136,2.09353 -1.49253,1.95415 -5.43931,2.87268 -7.2613,1.68992 z m 78.20876,-2.96548 c -0.3264,-0.52812 -0.82124,-3.47239 -1.09966,-6.54284 -0.45366,-5.003 -0.33904,-5.51846 1.10399,-4.96473 1.97811,0.75908 3.34157,4.14233 3.34157,8.29166 0,3.10508 -2.142,5.16387 -3.3459,3.21591 z M 178.75,162.5 c -1.24438,-1.24438 -0.56531,-2.06179 2.57335,-3.09764 1.75909,-0.58055 3.45453,-1.72315 3.76764,-2.53909 0.48144,-1.25464 -0.004,-1.39199 -3.14177,-0.89013 -4.63749,0.74156 -5.74675,-0.70972 -2.49656,-3.26632 1.33229,-1.04797 2.42234,-2.45023 2.42234,-3.11611 0,-0.66589 1.76298,-2.42824 3.91772,-3.91634 4.16212,-2.87441 12.01978,-12.7443 12.01978,-15.09789 0,-1.02563 0.62481,-1.24792 2.31514,-0.82369 1.79099,0.44952 2.654,0.0639 3.81186,-1.70321 1.31428,-2.00585 5.65377,-4.29958 8.13432,-4.29958 0.4711,0 0.78144,0.73828 0.68965,1.64063 -0.30399,2.98852 0.0347,3.98437 1.35498,3.98437 1.75906,0 2.65231,-2.27828 3.30449,-8.42826 0.44302,-4.1777 0.89891,-5.21001 2.42081,-5.48161 2.82553,-0.50426 3.12577,-1.0117 6.52457,-11.02768 2.4593,-7.247312 3.5276,-9.2812 4.87495,-9.2812 1.35084,0 1.78679,0.838884 2.00786,3.863644 0.25355,3.469216 0.64977,4.029306 3.88128,5.486516 4.75228,2.14298 7.01322,1.28335 9.99163,-3.79893 2.47352,-4.22073 2.4832,-6.95748 0.0246,-6.95748 -0.90624,0 -1.55883,-1.535119 -1.99226,-4.686453 -1.11929,-8.13824 -2.94718,-6.671164 -3.5029,2.811453 -0.20578,3.511341 -0.56165,4.21875 -2.12224,4.21875 -1.66893,0 -1.94071,-0.824287 -2.47287,-7.5 -0.32883,-4.125 -0.8938,-8.218714 -1.25549,-9.097143 -0.38117,-0.925731 -0.0313,-2.49133 0.83225,-3.724224 1.6449,-2.348419 1.92466,-5.67077 0.68205,-8.09964 -0.44429,-0.868447 -1.07776,-2.709722 -1.4077,-4.091725 -0.50425,-2.112147 -0.26338,-2.56052 1.51093,-2.8125 1.82857,-0.259682 2.08403,-0.801225 1.91037,-4.049768 -0.37724,-7.057103 0.20943,-8.029518 4.67511,-7.748964 3.87628,0.243526 3.96948,0.179621 4.26612,-2.92527 0.27314,-2.858793 0.1001,-3.121103 -1.74123,-2.639582 -2.72119,0.711605 -6.38321,-0.769033 -9.5319,-3.853968 -3.37691,-3.30855 -3.31661,-4.863466 0.18865,-4.863466 2.3843,0 2.8125,-0.361314 2.8125,-2.373173 0,-1.305245 0.63281,-2.616006 1.40625,-2.912803 2.65792,-1.019936 1.55364,-3.150829 -1.64063,-3.16588 -3.49006,-0.01644 -5.8917,-1.228918 -5.06946,-2.559333 1.02727,-1.662165 10.98413,-2.133366 13.84279,-0.655099 1.43987,0.744583 3.82014,1.353788 5.28949,1.353788 3.36685,0 4.92156,1.529582 4.92156,4.842015 0,3.447343 2.27256,4.529702 9.54774,4.547341 6.57511,0.01594 7.88311,0.523366 8.40209,3.259504 0.2506,1.321137 1.92824,2.398983 5.73346,3.683619 4.96654,1.676694 6.6296,3.409082 4.52268,4.711229 -1.07789,0.666174 -11.95369,-1.825519 -18.00624,-4.125309 -2.5164,-0.956157 -4.78329,-1.401896 -5.03753,-0.990528 -0.25424,0.411367 0.10032,2.163851 0.78791,3.89441 1.43803,3.619293 1.36205,17.286309 -0.12432,22.365219 -0.52816,1.804688 -2.08586,6.234375 -3.46157,9.84375 -1.3757,3.609375 -2.8633,7.617188 -3.30576,8.90625 -5.30861,15.46585 -9.41189,22.78659 -13.68184,24.41003 -1.23839,0.47084 -2.25162,1.55065 -2.25162,2.39958 0,3.24492 -5.17,14.70063 -7.01921,15.55321 -1.03787,0.47851 -3.09204,2.55757 -4.5648,4.62013 -1.92582,2.69703 -3.24883,3.67528 -4.71136,3.48363 -1.11848,-0.14657 -3.99642,0.8838 -6.39543,2.28971 -5.0023,2.93155 -11.0592,3.50642 -11.0592,1.04966 0,-1.06533 -0.4805,-1.31012 -1.64063,-0.83583 -0.90234,0.3689 -2.94847,1.04921 -4.54695,1.51181 -1.59849,0.4626 -3.66779,1.68248 -4.59843,2.71083 -0.93065,1.02836 -2.20786,1.86974 -2.83825,1.86974 -0.63039,0 -1.62857,0.58129 -2.21821,1.29174 -0.84408,1.01706 -0.65423,1.401 0.89285,1.80557 1.67799,0.43881 1.81031,0.80268 0.90627,2.4919 -0.58224,1.08793 -2.30131,2.2266 -3.82013,2.53036 -3.7952,0.75904 -3.61789,3.13043 0.23406,3.13043 1.97528,0 3.89325,-0.86003 5.63117,-2.52507 1.97563,-1.89278 2.90372,-2.25696 3.7063,-1.45438 1.57955,1.57955 -1.38031,5.61876 -5.34769,7.29775 -1.77945,0.75306 -4.72624,2.00201 -6.54842,2.77545 -3.44886,1.4639 -8.10808,1.86011 -9.18694,0.78125 z m 85.85937,-16.22637 c -3.16481,-1.94349 -4.11092,-4.71113 -1.61051,-4.71113 0.79,0 2.93185,0.62485 4.75965,1.38856 2.30967,0.96504 3.22651,1.89107 3.00599,3.03611 -0.45212,2.34767 -2.63333,2.44919 -6.15513,0.28646 z m -91.17187,-4.03378 c 0,-3.16418 2.58506,-6.30235 5.19155,-6.30235 1.64183,0 2.43588,-0.65003 2.86044,-2.34165 0.84642,-3.3724 -0.14597,-5.15835 -2.86632,-5.15835 -2.8099,0 -6.12317,-3.00693 -6.12317,-5.55705 0,-0.99388 1.33106,-2.84877 2.95793,-4.12197 3.49113,-2.73223 3.82611,-6.48295 1.00587,-11.2629 -0.98097,-1.66262 -2.08328,-4.89716 -2.44958,-7.18789 -0.3663,-2.290724 -1.33437,-4.90349 -2.15126,-5.806143 -1.07603,-1.189012 -1.32554,-2.639974 -0.90558,-5.266281 0.54227,-3.391179 0.35909,-3.7708 -2.83895,-5.883303 C 165.8782,81.872167 163.6177,78.993205 161.56064,75 c -1.72653,-3.351563 -3.79962,-6.584993 -4.60686,-7.185402 -1.14297,-0.850109 -1.32563,-2.03925 -0.8255,-5.37429 0.60203,-4.014692 0.48907,-4.340861 -1.80553,-5.213268 -1.34626,-0.511848 -2.44775,-1.573886 -2.44775,-2.360086 0,-2.124915 4.99124,-1.808637 7.03125,0.445546 3.52086,3.890505 4.61096,0.6202 1.40625,-4.21875 -4.04368,-6.105761 -1.38631,-6.902974 4.6875,-1.40625 2.27903,2.0625 4.47699,3.75 4.88436,3.75 0.40735,0 0.75779,2.003906 0.77874,4.453125 l 0.0381,4.453125 2.8031,-3.28125 c 2.76111,-3.232103 2.92552,-3.285279 10.97751,-3.550272 8.56446,-0.281858 11.17672,0.481942 10.21547,2.986905 C 194.26672,59.621175 192.83208,60 189.0134,60 c -5.40425,0 -12.36133,2.412558 -14.54518,5.043933 -0.98139,1.182498 -1.13199,3.269435 -0.63505,8.799964 0.3583,3.98742 1.0353,7.386026 1.50445,7.552459 0.46917,0.166434 1.12067,1.853934 1.44781,3.75 1.15743,6.708401 3.43515,13.809422 5.68886,17.735654 1.46505,2.55227 2.48718,6.17147 2.85482,10.10832 0.31497,3.37291 0.93226,6.35482 1.37177,6.62645 0.43952,0.27163 0.79912,2.19164 0.79912,4.26667 0,2.59522 0.36578,3.65459 1.17188,3.3941 1.48102,-0.4786 4.75366,-6.37588 6.82866,-12.30521 2.38853,-6.82524 3.11334,-7.83492 12.37274,-17.235668 5.51528,-5.599458 8.75943,-9.672143 9.16105,-11.500672 0.39371,-1.792579 1.60049,-3.337188 3.28979,-4.210764 1.46741,-0.758819 2.93727,-2.228049 3.26637,-3.264954 0.3291,-1.036905 0.99181,-1.885282 1.47269,-1.885282 2.06499,0 0.49959,-2.683414 -4.30693,-7.382903 -2.83466,-2.771535 -7.12472,-7.72326 -9.53349,-11.003834 -4.75477,-6.475674 -6.78051,-7.621612 -18.5861,-10.513927 -6.78861,-1.663178 -8.3588,-3.124897 -5.18273,-4.824679 1.48572,-0.795139 2.65719,-0.712716 4.97884,0.350305 1.66979,0.764551 4.93442,1.856439 7.25473,2.426417 7.31788,1.797621 8.90691,2.771992 12.69052,7.781685 2.02949,2.687128 7.07077,8.168159 11.20285,12.180072 l 7.51288,7.294385 -1.64063,2.859714 c -0.96461,1.681382 -1.64062,4.798149 -1.64062,7.564133 0,4.288881 -0.35194,5.053954 -3.98438,8.661579 -2.1914,2.176441 -5.46093,6.032265 -7.26562,8.568503 -1.80469,2.53624 -4.45718,5.88168 -5.89442,7.43432 -1.43723,1.55264 -5.65598,7.4636 -9.375,13.13548 -3.71901,5.67188 -7.79399,10.81462 -9.05551,11.42834 -1.26153,0.61371 -2.94903,2.45976 -3.75,4.10232 -1.65392,3.39169 -8.43089,7.43809 -12.45744,7.43809 -2.07293,0 -2.59263,-0.428 -2.59263,-2.13515 z m 89.98,-4.25481 c -5.15537,-1.92021 -6.5425,-2.78919 -6.5425,-4.09865 0,-1.20907 8.27691,-0.28402 11.79305,1.31804 2.49283,1.13581 2.74368,3.8661 0.38369,4.17609 -0.76752,0.10081 -3.30293,-0.52715 -5.63424,-1.39548 z m 86.60945,-16.89252 c -1.61798,-1.88995 -3.9053,-5.12377 -5.08292,-7.18627 -1.17761,-2.0625 -2.75146,-4.47128 -3.49744,-5.35285 -2.04751,-2.41967 -0.7476,-6.3659 2.09698,-6.3659 3.20313,0 6.15355,4.09769 5.98822,8.31677 -0.13185,3.365 2.00404,8.66549 4.49603,11.15748 0.70657,0.70657 1.28468,1.67642 1.28468,2.15522 0,1.84009 -2.46605,0.56896 -5.28555,-2.72445 z m -214.74528,-3.62335 c -3.4728,-3.4728 -8.24678,-6.31462 -12.36422,-7.36008 -2.32571,-0.59052 -4.37899,-1.52497 -4.56286,-2.07655 -0.18616,-0.55849 2.04529,-1.49687 5.03584,-2.11771 6.33345,-1.31481 10.90244,-0.31027 14.7322,3.23903 1.55976,1.44553 4.11649,2.50942 6.93917,2.88749 6.09259,0.81602 6.8132,1.11176 6.8132,2.79618 0,1.81317 -2.67458,2.84684 -9.54941,3.69063 -4.47473,0.54922 -5.60575,0.37918 -7.04392,-1.05899 z M 71.826875,106.5996 c -1.208502,-1.2085 -2.43202,-3.91156 -2.793355,-6.17122 -0.353626,-2.211464 -1.637528,-5.98988 -2.853117,-8.396484 -1.215588,-2.406605 -2.943926,-7.750646 -3.840752,-11.875646 -0.932941,-4.291115 -2.43462,-8.382016 -3.509814,-9.5615 -1.307416,-1.434229 -1.727457,-2.855413 -1.380449,-4.670665 0.285286,-1.492378 -0.134034,-3.820192 -0.97966,-5.4385 -2.035855,-3.896092 -1.910681,-15.696664 0.218325,-20.582264 2.279405,-5.23073 5.954128,-9.766969 9.324743,-11.510871 7.209278,-3.729965 20.455588,-5.36867 21.495312,-2.659193 0.669568,1.744866 -1.236267,2.327626 -10.748103,3.286519 -4.186334,0.422027 -7.876958,1.173943 -8.201386,1.670925 -0.324428,0.496982 -1.508131,1.386911 -2.630452,1.97762 -1.194392,0.628642 -2.887102,3.310993 -4.081958,6.468472 -2.667555,7.049174 -2.230611,18.603805 0.818826,21.653242 1.054836,1.054836 2.216104,3.507535 2.580595,5.450444 0.364493,1.942908 1.871778,5.583139 3.349524,8.089402 4.332049,7.347174 5.467346,10.860842 5.467346,16.921072 l 0,5.709469 2.766743,-3.245835 C 80.141846,89.828369 82.5,83.516618 82.5,78.536438 c 0,-1.996252 0.620745,-4.82994 1.379435,-6.297082 0.758688,-1.467143 1.64992,-4.359063 1.980515,-6.426489 0.513317,-3.210108 0.311905,-3.91372 -1.379434,-4.818897 C 83.071275,60.239767 82.5,59.030188 82.5,56.800557 82.5,55.077147 81.867187,53.141896 81.09375,52.5 c -1.962149,-1.628439 -1.75381,-3.834648 0.415691,-4.401985 1.113446,-0.291173 1.933715,-1.441876 2.109375,-2.959107 0.271263,-2.342985 0.537965,-2.466831 4.740559,-2.201331 4.221994,0.266724 4.453125,0.157227 4.453125,-2.109649 0,-1.898541 -0.962632,-2.921896 -4.673992,-4.968826 -5.302614,-2.924555 -6.075596,-4.921602 -1.90497,-4.921602 3.531516,0 10.837265,6.714127 11.731528,10.781505 1.128412,5.132382 2.471644,6.917805 5.428674,7.215808 2.44693,0.246595 2.98253,0.838761 4.07263,4.502687 1.66345,5.591016 1.60454,8.920163 -0.18959,10.714285 -2.03167,2.031678 -6.23915,1.844701 -9.098321,-0.40432 -1.31279,-1.032644 -3.041128,-1.626483 -3.84074,-1.319643 -1.582688,0.607335 -1.594136,0.637606 -3.868531,10.228428 -0.855938,3.609375 -3.842911,11.6869 -6.637719,17.950056 C 81.036661,96.869466 78.75,102.85104 78.75,103.89872 c 0,1.9853 -2.280114,4.85128 -3.859578,4.85128 -0.502232,0 -1.880828,-0.96768 -3.063547,-2.1504 z m 26.208841,-8.697816 c -1.921022,-1.921022 -1.870407,-2.175375 0.636159,-3.196622 l 2.109375,-0.859425 -2.178994,-0.644165 c -1.628784,-0.481512 -2.059781,-1.14459 -1.706878,-2.625995 0.25966,-1.090005 0.172781,-5.692901 -0.193078,-10.228657 -0.719616,-8.921701 -0.377138,-10.398155 2.292741,-9.883984 2.958269,0.569711 4.160879,4.439358 4.032219,12.974564 -0.0661,4.382812 0.33855,9.399907 0.89914,11.149097 0.5606,1.749197 0.79566,3.542165 0.52236,3.984375 -0.82015,1.32704 -4.835851,0.908015 -6.413044,-0.669188 z M 338.64759,93.278032 c -1.68913,-1.202518 -5.05199,-3.85837 -7.47301,-5.901893 -3.86355,-3.261135 -4.24603,-3.903261 -3.12758,-5.250904 1.08744,-1.310292 1.02782,-1.807731 -0.40667,-3.392821 -0.92451,-1.021577 -2.17482,-1.857414 -2.77846,-1.857414 -0.60364,0 -2.03797,-1.001057 -3.1874,-2.224572 -1.14944,-1.223515 -3.75423,-2.975086 -5.78843,-3.892382 -4.09912,-1.84845 -4.92976,-4.195546 -1.48479,-4.195546 1.8558,0 2.14129,-0.378961 1.7657,-2.34375 -0.51462,-2.692077 0.56163,-2.952416 4.27244,-1.03348 3.38953,1.752787 5.42219,4.210269 6.20714,7.50438 0.3566,1.496495 1.88983,3.880599 3.40717,5.298009 2.69429,2.516851 3.69334,5.574841 1.8213,5.574841 -2.12328,0 -0.70417,1.955933 2.66689,3.675714 4.06755,2.075111 9.84522,8.165611 9.01717,9.505414 -0.75764,1.225894 -1.40013,1.034175 -4.91147,-1.465596 z M 322.03125,68.4375 c -0.31867,-0.515625 -1.50373,-0.93104 -2.63346,-0.923144 -1.6699,0.01167 -1.79105,0.184313 -0.64779,0.923144 1.84699,1.193613 4.01894,1.193613 3.28125,0 z M 300.9375,59.170477 c -5.73876,-2.141584 -5.5954,-4.238967 0.31548,-4.615781 5.18219,-0.330361 9.05952,1.608159 9.05952,4.529416 0,2.320479 -3.30667,2.35094 -9.375,0.08636 z M 92.054573,25.490934 c -1.429496,-0.213485 -2.062915,-0.85558 -1.865888,-1.891444 0.241036,-1.267243 1.826001,-1.670222 8.257928,-2.099584 8.502557,-0.567586 12.470157,-2.139783 17.057657,-6.759231 1.7942,-1.806707 3.49163,-2.553175 5.80578,-2.553175 4.07635,0 8.6623,-2.6672447 12.13391,-7.0572293 2.32414,-2.9389734 3.02243,-3.2880864 5.49187,-2.7457063 1.85749,0.4079738 4.08579,0.054731 6.488,-1.0285159 3.21428,-1.44944181 4.29097,-1.50843752 8.86166,-0.48556248 4.05442,0.90733828 6.22232,0.91977218 9.82154,0.056331 6.0867,-1.46017677 33.07968,-0.73826226 35.10035,0.93874228 0.77969,0.6470884 1.41762,1.5544592 1.41762,2.0163793 0,0.4763584 -6.18781,0.6590012 -14.29688,0.4219943 -8.27689,-0.241912 -16.07325,-0.00423 -18.51562,0.5644831 -2.32031,0.5402889 -7.38281,1.0891047 -11.25,1.2195908 -3.86719,0.130486 -8.50781,0.7723277 -10.3125,1.4263148 -1.80469,0.6539872 -4.96875,1.8115788 -7.03125,2.5724254 C 131.85614,12.802782 112.5,22.980549 112.5,24.135894 c 0,0.647133 -0.31641,1.216749 -0.70312,1.265812 -2.2743,0.28854 -17.933808,0.359316 -19.742307,0.08923 z m 141.020717,-9.38106 c -0.86785,-1.404199 1.49644,-2.844261 5.79934,-3.532325 3.21966,-0.514843 3.93787,-0.361449 3.93787,0.841053 0,1.861992 -0.53211,2.158042 -5.29441,2.945654 -2.21629,0.36654 -4.12666,0.257158 -4.4428,-0.254382 z m -11.35654,-4.28795 c -2.57813,-0.628989 -5.45243,-1.574018 -6.38737,-2.1000649 -1.48684,-0.8365915 -1.52533,-1.1012973 -0.30709,-2.1123434 1.0684,-0.886689 2.69063,-0.9205485 6.96542,-0.1453829 6.44177,1.1681182 8.02497,0.7764226 12.02637,-2.9754312 2.2924,-2.1494446 3.03638,-2.4428266 3.4515,-1.3610634 0.9769,2.5457752 -0.43948,5.1661899 -4.10281,7.5904618 -4.03393,2.669534 -4.89421,2.751072 -11.64602,1.103824 z M 206.96769,3.3931122 C 204.80068,1.7475707 205.81467,0.9375 210.04146,0.9375 c 3.33425,0 6.24274,1.8407953 4.95041,3.1331337 -1.06012,1.0601174 -6.32082,0.6159295 -8.02418,-0.6775215 z"
     id="path4230"
     inkscape:connector-curvature="0" />
</svg>
